<?xml version="1.0" encoding="utf-8"?>
<!-- Generator: Adobe Illustrator 18.1.1, SVG Export Plug-In . SVG Version: 6.00 Build 0)  -->
<svg version="1.1" xmlns="http://www.w3.org/2000/svg" xmlns:xlink="http://www.w3.org/1999/xlink" x="0px" y="0px"
	 viewBox="0 0 611.9 114.9" enable-background="new 0 0 611.9 114.9" xml:space="preserve">
<g id="Logo">
	<g>
		<g>
			<path fill="#53A318" d="M242.6,75.8c8.6,0,14.3-5.6,14.3-15V36.7h-9.4v23.7c0,4.4-1.6,6.5-4.9,6.5c-3.2,0-4.5-2.2-4.5-6.5V36.7
				h-9.5v24.1C228.6,70.4,233.8,75.8,242.6,75.8z"/>
			<path fill="#53A318" d="M269,62.8h2.7c4,0,7-0.3,9.5-1.7c3.8-2.3,6.1-6.4,6.1-11.4c0-4.8-1.8-8.4-5.2-10.8
				c-2.6-1.8-5.7-2.1-9.7-2.1h-12.8v38.5h9.4V62.8z M269.1,45.3h2.5c4.2,0,6.2,1.3,6.2,4.5c0,3.5-2.3,4.7-6.9,4.7h-1.7V45.3z"/>
			<polygon fill="#53A318" points="339.4,53.8 353.7,75.2 362,75.2 362,36.7 352.6,36.7 352.6,58.1 338.5,36.7 330,36.7 330,75.2 
				339.4,75.2 			"/>
			<path fill="#53A318" d="M206.4,75.9c5.4,0,10.4-2.1,14.2-6c3.6-3.7,5.6-8.7,5.6-14.2c0-5.3-2.1-10.2-6-14
				c-3.7-3.7-8.6-5.7-13.7-5.7c-5.5,0-10.2,1.9-14,5.6c-3.8,3.7-5.8,8.6-5.8,13.9c0,5.7,1.8,10.4,5.5,14.3
				C195.9,73.9,200.7,75.9,206.4,75.9z M206.5,45.6c5.4,0,9.9,4.5,9.9,10.1c0,6.3-4.5,10.7-10,10.7c-5.3,0-10.1-4.7-10.1-10.7
				C196.3,50,200.8,45.6,206.5,45.6z"/>
			<path fill="#53A318" d="M308.4,75.9c5.4,0,10.4-2.1,14.2-6c3.6-3.7,5.6-8.7,5.6-14.2c0-5.3-2.1-10.2-6-14
				c-3.7-3.7-8.6-5.7-13.7-5.7c-5.5,0-10.2,1.9-14,5.6c-3.8,3.7-5.8,8.6-5.8,13.9c0,5.7,1.8,10.4,5.5,14.3
				C297.8,73.9,302.7,75.9,308.4,75.9z M308.5,45.6c5.4,0,9.9,4.5,9.9,10.1c0,6.3-4.5,10.7-10,10.7c-5.3,0-10.1-4.7-10.1-10.7
				C298.3,50,302.8,45.6,308.5,45.6z"/>
			<path fill="#53A318" d="M121,69.9c3.8,4,8.6,6.1,14.3,6.1c6.5,0,12.7-3.2,16.4-8.6c2.2-3.2,3.3-6.9,3.3-11.3
				c0-0.8-0.1-1.7-0.1-2.5H133v7.7h11c-1.9,3.4-5.1,5.2-8.7,5.2c-5.3,0-10.1-4.7-10.1-10.8c0-5.5,4.4-10.1,10.1-10.1
				c3,0,5.5,1.2,7.9,3.7H154C150.9,41,143.7,36,135.4,36c-5.5,0-10.2,1.9-14,5.7c-3.8,3.7-5.8,8.6-5.8,13.9
				C115.6,61.3,117.4,66,121,69.9z"/>
			<path fill="#53A318" d="M166.8,62.8l7.4,12.4h11.6L176.4,62c5.5-1.5,8.7-6.2,8.7-12.4c0-4.8-1.8-8.4-5.2-10.8
				c-2.6-1.8-5.7-2.1-9.7-2.1h-12.8v38.5h9.4V62.8z M166.8,45.3h2.6c4.2,0,6.2,1.3,6.2,4.5c0,3.5-2.3,4.7-6.9,4.7h-1.8V45.3z"/>
		</g>
		<path fill="#53A318" d="M421.3,73.3c4.3,0,7.3-1.9,9.6-4.4l1.9,1.6c-2.8,3.1-6.2,5.3-11.6,5.3c-7.3,0-13.7-5.9-13.7-14.6v-0.1
			c0-8.1,5.7-14.6,13.2-14.6c7.8,0,12.8,6.3,12.8,14.6v0.1c0,0.4,0,0.5-0.1,1h-23.2C410.9,69.3,415.9,73.3,421.3,73.3z M430.7,59.9
			c-0.4-5.6-3.6-10.8-10-10.8c-5.5,0-9.8,4.7-10.3,10.8H430.7z"/>
		<path fill="#53A318" d="M452.1,49.8c-6.5,0-12.1,4.9-12.1,14v11.4h-2.7V47.3h2.7v7.9c2.2-5,6.8-8.6,12.4-8.4v3H452.1z"/>
		<path fill="#53A318" d="M466.4,75.8c-8,0-14.2-6.7-14.2-14.5v-0.1c0-7.8,6.2-14.6,14.2-14.6c5.3,0,8.5,2.4,11.2,5.1l-1.9,2
			c-2.4-2.5-5.1-4.6-9.3-4.6c-6.4,0-11.3,5.3-11.3,12v0.1c0,6.7,5.1,12.1,11.5,12.1c3.9,0,7-2,9.4-4.7l1.9,1.6
			C475,73.5,471.6,75.8,466.4,75.8z"/>
		<path fill="#53A318" d="M502.5,75.2V58.6c0-5.7-3.2-9.5-8.9-9.5c-5.5,0-9.7,4.2-9.7,10v16.1h-2.7V36.6h2.7v15.8
			c1.9-3.3,5-5.9,10.1-5.9c7.1,0,11.2,4.8,11.2,11.5v17.1H502.5z"/>
		<path fill="#53A318" d="M529.9,75.2v-4.7c-1.9,2.7-5.4,5.3-10.7,5.3c-5.2,0-10.8-3-10.8-8.8V67c0-5.8,5-9.1,12.2-9.1
			c3.9,0,6.6,0.5,9.2,1.2v-1.2c0-5.6-3.4-8.5-9.2-8.5c-3.4,0-6.2,0.9-8.8,2.2l-1-2.4c3.1-1.4,6.1-2.4,9.9-2.4
			c7.2,0,11.7,3.7,11.7,10.9v17.4H529.9z M529.9,61.5c-2.4-0.6-5.5-1.3-9.5-1.3c-5.9,0-9.2,2.6-9.2,6.5v0.1c0,4,3.8,6.4,8.1,6.4
			c5.7,0,10.6-3.5,10.6-8.6V61.5z"/>
		<path fill="#53A318" d="M557.9,75.2V58.6c0-5.7-3.2-9.5-8.9-9.5c-5.5,0-9.7,4.2-9.7,10v16.1h-2.7V47.3h2.7v5.2
			c1.9-3.3,5-5.9,10.1-5.9c7.1,0,11.2,4.8,11.2,11.5v17.1H557.9z"/>
		<path fill="#53A318" d="M574.4,75.7c-4.3,0-7.8-2.4-7.8-7.7V49.7h-4.1v-2.5h4.1v-8.9h2.7v8.9h9.8v2.5h-9.8v18c0,4,2.4,5.4,5.6,5.4
			c1.4,0,2.5-0.3,4.1-1v2.5C577.5,75.3,576.2,75.7,574.4,75.7z"/>
		<polygon fill="#53A318" points="405.1,75.2 400.7,36.7 398,36.7 385.7,62 373.4,36.7 370.7,36.7 366.3,75.2 369,75.2 372.8,41.6 
			385.7,68.2 398.6,41.6 402.4,75.2 		"/>
		<g>
			<path fill="#53A318" d="M583.7,75.2h-0.4v-3.3h-1.2v-0.4h2.8v0.4h-1.2V75.2z M587.7,74.4L587.7,74.4l-1.5-2.1v3h-0.4v-3.7h0.4
				l1.4,2.2l1.4-2.2h0.4v3.7h-0.4v-3L587.7,74.4z"/>
		</g>
	</g>
	<polygon fill="#338833" points="64.3,75.1 51.4,75.1 40.7,42.9 53.6,42.9 	"/>
	<polygon fill="#53A318" points="45,75.1 32.1,75.1 40.7,42.9 53.6,42.9 	"/>
	<polygon fill="#338833" points="83.7,75.1 70.8,75.1 61.8,36.4 74.7,36.4 	"/>
	<polygon fill="#53A318" points="64.3,75.1 51.4,75.1 61.8,36.4 74.7,36.4 	"/>
	<polygon fill="#53A318" points="83.7,75.1 70.8,75.1 82.9,29.9 95.8,29.9 	"/>
</g>
<g id="Dimensions">
</g>
</svg>
